#N canvas 27 122 1656 858 12;
#X obj 97 78 netreceive -u -b;
#X obj 98 111 oscparse;
#X msg 204 28 listen 0;
#X obj 97 146 list trim;
#X floatatom 62 648 5 0 0 0 - - -, f 5;
#X obj 66 834 ctlout;
#X floatatom 151 802 5 0 0 0 - - -, f 5;
#X msg 149 758 1;
#X obj 149 731 loadbang;
#X msg 65 803 1;
#X text 65 776 control;
#X obj 63 703 t b f b;
#X text 189 759 channel;
#X floatatom 296 699 5 0 0 0 - - -, f 5;
#X obj 297 732 min 127;
#X obj 297 760 max 0;
#X floatatom 298 788 5 0 0 0 - - -, f 5;
#X obj 296 671 hsl 128 15 0 127 0 0 empty empty empty -2 -8 0 10 #fcfcfc
#000000 #000000 0 1;
#X msg 94 29 listen 8000;
#X obj 95 197 route sleeper;
#X obj 98 296 route touch;
#X obj 98 327 unpack i i;
#X floatatom 101 363 5 0 0 0 - - -, f 5;
#X floatatom 167 361 5 0 0 0 - - -, f 5;
#X text 71 364 id;
#X text 217 360 touch;
#X floatatom 364 368 5 0 0 0 - - -, f 5;
#X floatatom 430 366 5 0 0 0 - - -, f 5;
#X text 334 369 id;
#X obj 360 295 route angle;
#X obj 361 332 unpack i f f f;
#X text 480 365 x;
#X floatatom 524 368 5 0 0 0 - - -, f 5;
#X floatatom 647 369 5 0 0 0 - - -, f 5;
#X text 697 368 z;
#X text 574 367 y;
#X floatatom 812 374 5 0 0 0 - - -, f 5;
#X floatatom 878 372 5 0 0 0 - - -, f 5;
#X text 782 375 id;
#X obj 809 338 unpack i f f f;
#X text 928 371 x;
#X floatatom 972 374 5 0 0 0 - - -, f 5;
#X floatatom 1095 375 5 0 0 0 - - -, f 5;
#X text 1145 374 z;
#X text 1022 373 y;
#X obj 808 301 route accel;
#X floatatom 281 510 5 0 0 0 - - -, f 5;
#X floatatom 347 508 5 0 0 0 - - -, f 5;
#X text 251 511 id;
#X text 397 507 x;
#X obj 277 437 route piezo;
#X obj 278 474 unpack i i;
#X floatatom 538 503 5 0 0 0 - - -, f 5;
#X text 508 504 id;
#X obj 534 430 route piezo_onset;
#X obj 535 467 unpack i;
#X obj 542 549 bng 15 250 50 0 empty empty empty 17 7 0 10 #fcfcfc
#000000 #000000;
#X connect 0 0 1 0;
#X connect 1 0 3 0;
#X connect 2 0 0 0;
#X connect 3 0 19 0;
#X connect 4 0 11 0;
#X connect 6 0 5 2;
#X connect 7 0 6 0;
#X connect 8 0 7 0;
#X connect 9 0 5 1;
#X connect 11 0 9 0;
#X connect 11 1 5 0;
#X connect 11 2 7 0;
#X connect 13 0 14 0;
#X connect 14 0 15 0;
#X connect 15 0 16 0;
#X connect 16 0 4 0;
#X connect 17 0 13 0;
#X connect 18 0 0 0;
#X connect 19 0 20 0;
#X connect 19 0 29 0;
#X connect 19 0 45 0;
#X connect 19 0 50 0;
#X connect 19 0 54 0;
#X connect 20 0 21 0;
#X connect 21 0 22 0;
#X connect 21 1 23 0;
#X connect 29 0 30 0;
#X connect 30 0 26 0;
#X connect 30 1 27 0;
#X connect 30 2 32 0;
#X connect 30 3 33 0;
#X connect 39 0 36 0;
#X connect 39 1 37 0;
#X connect 39 2 41 0;
#X connect 39 3 42 0;
#X connect 45 0 39 0;
#X connect 50 0 51 0;
#X connect 51 0 46 0;
#X connect 51 1 47 0;
#X connect 52 0 56 0;
#X connect 54 0 55 0;
#X connect 55 0 52 0;
