#N canvas 0 73 1728 858 12;
#X obj 64 805 netreceive -u -b;
#X obj 65 838 oscparse;
#X msg 171 755 listen 0;
#X obj 64 873 list trim;
#X floatatom 59 873 5 0 0 0 - - -, f 5;
#X obj 63 1059 ctlout;
#X floatatom 148 1027 5 0 0 0 - - -, f 5;
#X msg 146 983 1;
#X obj 146 956 loadbang;
#X msg 62 1028 1;
#X text 62 1001 control;
#X obj 60 928 t b f b;
#X text 186 984 channel;
#X floatatom 293 924 5 0 0 0 - - -, f 5;
#X obj 294 957 min 127;
#X obj 294 985 max 0;
#X floatatom 295 1013 5 0 0 0 - - -, f 5;
#X obj 293 896 hsl 128 15 0 127 0 0 empty empty empty -2 -8 0 10 #fcfcfc
#000000 #000000 0 1;
#X msg 61 756 listen 8000;
#X obj 62 924 route sleeper;
#X obj 65 1023 route touch;
#X floatatom 68 1090 5 0 0 0 - - -, f 5;
#X text 38 1091 id;
#X text 184 1087 touch;
#X floatatom 331 1095 5 0 0 0 - - -, f 5;
#X floatatom 397 1093 5 0 0 0 - - -, f 5;
#X text 301 1096 id;
#X obj 327 1022 route angle;
#X obj 328 1059 unpack i f f f;
#X text 447 1092 x;
#X floatatom 491 1095 5 0 0 0 - - -, f 5;
#X floatatom 614 1096 5 0 0 0 - - -, f 5;
#X text 664 1095 z;
#X text 541 1094 y;
#X floatatom 779 1101 5 0 0 0 - - -, f 5;
#X floatatom 845 1099 5 0 0 0 - - -, f 5;
#X text 749 1102 id;
#X obj 776 1065 unpack i f f f;
#X text 895 1098 x;
#X floatatom 939 1101 5 0 0 0 - - -, f 5;
#X floatatom 1062 1102 5 0 0 0 - - -, f 5;
#X text 1112 1101 z;
#X text 989 1100 y;
#X obj 775 1028 route accel;
#X floatatom 1529 1122 5 0 0 0 - - -, f 5;
#X floatatom 1595 1120 5 0 0 0 - - -, f 5;
#X text 1499 1123 id;
#X text 1645 1119 x;
#X obj 1525 1049 route piezo;
#X obj 1526 1086 unpack i i;
#X floatatom 1199 1099 5 0 0 0 - - -, f 5;
#X text 1169 1103 id;
#X obj 1198 1043 route piezo_onset;
#X obj 1199 1072 unpack i;
#X obj 1199 1125 bng 15 250 50 0 empty empty empty 17 7 0 10 #fcfcfc
#000000 #000000;
#X obj 31 494 pack s \$0;
#X obj 31 450 openpanel;
#X obj 30 420 bng 15 250 50 0 empty empty empty 17 7 0 10 #fcfcfc #000000
#000000;
#X obj 31 562 soundfiler;
#N canvas 0 22 450 300 (subpatch) 0;
#X array one_shot_sample_left 10893 float 2 black black;
#X coords 0 1 10893 -1 200 140 1;
#X restore 31 102 graph;
#N canvas 0 22 450 300 (subpatch) 0;
#X array one_shot_sample_right 10893 float 2 black black;
#X coords 0 1 10893 -1 200 140 1;
#X restore 28 257 graph;
#X obj 593 1542 dac~ 1 2;
#X obj 595 1494 *~;
#X obj 687 1495 hsl 128 15 0 127 0 0 empty empty empty -2 -8 0 10 #fcfcfc
#000000 #000000 6400 1;
#X obj 685 1517 / 127;
#X obj 161 1092 tgl 15 0 empty empty empty 17 7 0 10 #fcfcfc #000000
#000000 0 1;
#X obj 70 1167 print;
#X obj 65 1054 unpack i i;
#X text 21 1568 send cc;
#X msg 31 528 read -resize \$1 one_shot_sample_left one_shot_sample_right
;
#X obj 1199 1156 tabplay~ one_shot_sample_left;
#X text 35 24 first load some samples;
#X obj 465 494 pack s \$0;
#X obj 465 450 openpanel;
#X obj 464 420 bng 15 250 50 0 empty empty empty 17 7 0 10 #fcfcfc
#000000 #000000;
#X obj 465 562 soundfiler;
#N canvas 0 22 450 300 (subpatch) 0;
#X array toggle_sample_left 4e+06 float 2 black black;
#X coords 0 1 4e+06 -1 200 140 1;
#X restore 465 102 graph;
#N canvas 0 22 450 300 (subpatch) 0;
#X array toggle_sample_right 4e+06 float 2 black black;
#X coords 0 1 4e+06 -1 200 140 1;
#X restore 462 257 graph;
#X msg 465 528 read -resize \$1 toggle_sample_left toggle_sample_right
;
#X text 466 72 could be replaced with some generative patches;
#X obj 106 1277 tabplay~ toggle_sample_left;
#X msg 152 1232 stop;
#X msg 86 1228 bang;
#X obj 125 1189 bng 15 250 50 0 empty empty empty 17 7 0 10 #fcfcfc
#000000 #000000;
#X obj 205 1176 bng 15 250 50 0 empty empty empty 17 7 0 10 #fcfcfc
#000000 #000000;
#X obj 152 1141 moses 1;
#X obj 159 1114 change;
#X connect 0 0 1 0;
#X connect 1 0 3 0;
#X connect 2 0 0 0;
#X connect 3 0 19 0;
#X connect 4 0 11 0;
#X connect 6 0 5 2;
#X connect 7 0 6 0;
#X connect 8 0 7 0;
#X connect 9 0 5 1;
#X connect 11 0 9 0;
#X connect 11 1 5 0;
#X connect 11 2 7 0;
#X connect 13 0 14 0;
#X connect 14 0 15 0;
#X connect 15 0 16 0;
#X connect 16 0 4 0;
#X connect 17 0 13 0;
#X connect 18 0 0 0;
#X connect 19 0 20 0;
#X connect 19 0 27 0;
#X connect 19 0 43 0;
#X connect 19 0 48 0;
#X connect 19 0 52 0;
#X connect 20 0 67 0;
#X connect 27 0 28 0;
#X connect 28 0 24 0;
#X connect 28 1 25 0;
#X connect 28 2 30 0;
#X connect 28 3 31 0;
#X connect 37 0 34 0;
#X connect 37 1 35 0;
#X connect 37 2 39 0;
#X connect 37 3 40 0;
#X connect 43 0 37 0;
#X connect 48 0 49 0;
#X connect 49 0 44 0;
#X connect 49 1 45 0;
#X connect 50 0 54 0;
#X connect 52 0 53 0;
#X connect 53 0 50 0;
#X connect 54 0 70 0;
#X connect 55 0 69 0;
#X connect 56 0 55 0;
#X connect 57 0 56 0;
#X connect 62 0 61 0;
#X connect 62 0 61 1;
#X connect 63 0 64 0;
#X connect 64 0 62 1;
#X connect 65 0 86 0;
#X connect 67 0 21 0;
#X connect 67 0 66 0;
#X connect 67 1 65 0;
#X connect 69 0 58 0;
#X connect 70 0 62 0;
#X connect 72 0 78 0;
#X connect 73 0 72 0;
#X connect 74 0 73 0;
#X connect 78 0 75 0;
#X connect 80 0 62 0;
#X connect 81 0 80 0;
#X connect 82 0 80 0;
#X connect 83 0 81 0;
#X connect 84 0 82 0;
#X connect 85 0 83 0;
#X connect 85 1 84 0;
#X connect 86 0 85 0;
