#N canvas 0 38 1728 942 12;
#X obj 193 589 netreceive -u -b;
#X obj 194 622 oscparse;
#X msg 300 539 listen 0;
#X obj 193 657 list trim;
#X msg 190 540 listen 8000;
#X obj 193 698 route sleeper;
#X obj 194 806 route touch;
#X floatatom 197 874 5 0 0 0 - - -, f 5;
#X text 167 875 id;
#X floatatom 597 890 5 0 0 0 - - -, f 5;
#X floatatom 663 888 5 0 0 0 - - -, f 5;
#X text 570 893 id;
#X obj 593 817 route angle;
#X obj 594 854 unpack i f f f;
#X text 713 887 x;
#X floatatom 663 918 5 0 0 0 - - -, f 5;
#X floatatom 662 948 5 0 0 0 - - -, f 5;
#X text 712 947 z;
#X text 713 917 y;
#X floatatom 1172 924 5 0 0 0 - - -, f 5;
#X floatatom 1238 922 5 0 0 0 - - -, f 5;
#X text 1142 925 id;
#X obj 1169 888 unpack i f f f;
#X text 1288 921 x;
#X floatatom 1239 957 5 0 0 0 - - -, f 5;
#X floatatom 1240 990 5 0 0 0 - - -, f 5;
#X text 1290 989 z;
#X text 1289 956 y;
#X obj 1168 851 route accel;
#X floatatom 1574 628 5 0 0 0 - - -, f 5;
#X floatatom 1640 626 5 0 0 0 - - -, f 5;
#X text 1544 629 id;
#X text 1690 625 x;
#X obj 1570 555 route piezo;
#X obj 1571 592 unpack i i;
#X floatatom 1107 608 5 0 0 0 - - -, f 5;
#X text 1077 612 id;
#X obj 1106 552 route piezo_onset;
#X obj 1107 634 bng 15 250 50 0 empty empty empty 17 7 0 10 #fcfcfc
#000000 #000000;
#X obj 256 268 pack s \$0;
#X obj 256 224 openpanel;
#X obj 255 194 bng 15 250 50 0 empty empty empty 17 7 0 10 #fcfcfc
#000000 #000000;
#X obj 256 336 soundfiler;
#N canvas 0 22 450 300 (subpatch) 0;
#X array one_shot_sample_left 285196 float 2 black black;
#X coords 0 1 285196 -1 200 140 1;
#X restore 256 -124 graph;
#N canvas 0 22 450 300 (subpatch) 0;
#X array one_shot_sample_right 285196 float 2 black black;
#X coords 0 1 285196 -1 200 140 1;
#X restore 253 31 graph;
#X obj 859 1337 dac~ 1 2;
#X obj 820 1281 *~;
#X obj 996 1207 hsl 128 15 0 127 0 0 empty empty empty -2 -8 0 10 #fcfcfc
#000000 #000000 0 1;
#X obj 994 1229 / 127;
#X obj 285 956 tgl 15 0 empty empty empty 17 7 0 10 #fcfcfc #000000
#000000 0 1;
#X obj 83 906 print;
#X msg 256 302 read -resize \$1 one_shot_sample_left one_shot_sample_right
;
#X obj 1107 665 tabplay~ one_shot_sample_left;
#X text 77 -188 first load some samples;
#X obj 690 268 pack s \$0;
#X obj 690 224 openpanel;
#X obj 689 194 bng 15 250 50 0 empty empty empty 17 7 0 10 #fcfcfc
#000000 #000000;
#X obj 690 336 soundfiler;
#N canvas 0 22 450 300 (subpatch) 0;
#X array toggle_sample_left 613504 float 2 black black;
#X coords 0 1 613504 -1 200 140 1;
#X restore 690 -124 graph;
#N canvas 0 22 450 300 (subpatch) 0;
#X array toggle_sample_right 613504 float 2 black black;
#X coords 0 1 613504 -1 200 140 1;
#X restore 687 31 graph;
#X msg 690 302 read -resize \$1 toggle_sample_left toggle_sample_right
;
#X text 691 -154 could be replaced with some generative patches;
#X obj 236 1153 tabplay~ toggle_sample_left;
#X msg 276 1096 stop;
#X msg 215 1012 bang;
#X obj 254 973 bng 15 250 50 0 empty empty empty 17 7 0 10 #fcfcfc
#000000 #000000;
#X obj 329 1040 bng 15 250 50 0 empty empty empty 17 7 0 10 #fcfcfc
#000000 #000000;
#X obj 276 1005 moses 1;
#X obj 283 978 change;
#X text 73 466 and then connect the sound rendering engine;
#X obj 776 1067 *~;
#X obj 818 1065 *~;
#X obj 862 1286 *~;
#X obj 837 1019 expr 1 - \$1;
#X obj 435 960 tgl 15 0 empty empty empty 17 7 0 10 #fcfcfc #000000
#000000 0 1;
#X msg 426 1100 stop;
#X msg 360 1096 bang;
#X obj 399 1057 bng 15 250 50 0 empty empty empty 17 7 0 10 #fcfcfc
#000000 #000000;
#X obj 479 1044 bng 15 250 50 0 empty empty empty 17 7 0 10 #fcfcfc
#000000 #000000;
#X obj 426 1009 moses 1;
#X obj 433 982 change;
#X text 258 930 touch A;
#X text 394 929 touch B;
#X floatatom 1370 609 5 0 0 0 - - -, f 5;
#X text 1340 613 id;
#X obj 1370 582 unpack i;
#X obj 1370 635 bng 15 250 50 0 empty empty empty 17 7 0 10 #fcfcfc
#000000 #000000;
#X obj 1369 554 route piezo2_onset;
#X obj 194 838 unpack i i i;
#X text 1421 81 dont forget to turn on dsp !!!;
#X obj 1107 581 unpack i f;
#X floatatom 1172 624 5 0 0 0 - - -, f 5;
#X obj 710 684 print;
#X floatatom 1769 603 5 0 0 0 - - -, f 5;
#X floatatom 1835 601 5 0 0 0 - - -, f 5;
#X text 1739 604 id;
#X obj 1765 530 route all;
#X obj 1766 567 unpack i i i;
#X obj 1822 722 sel 1;
#X obj 1808 752 bng 15 250 50 0 empty empty empty 17 7 0 10 #fcfcfc
#000000 #000000;
#X obj 1838 677 > 0;
#X obj 1479 927 hsl 128 15 -2 2 0 0 empty empty empty -2 -8 0 10 #fcfcfc
#000000 #000000 8088 1;
#X obj 1480 959 hsl 128 15 -2 2 0 0 empty empty empty -2 -8 0 10 #fcfcfc
#000000 #000000 6385 1;
#X obj 1492 1012 hsl 128 15 -2 2 0 0 empty empty empty -2 -8 0 10 #fcfcfc
#000000 #000000 5786 1;
#X connect 0 0 1 0;
#X connect 1 0 3 0;
#X connect 2 0 0 0;
#X connect 3 0 5 0;
#X connect 4 0 0 0;
#X connect 5 0 6 0;
#X connect 5 0 12 0;
#X connect 5 0 28 0;
#X connect 5 0 33 0;
#X connect 5 0 37 0;
#X connect 5 0 87 0;
#X connect 5 0 96 0;
#X connect 6 0 88 0;
#X connect 12 0 13 0;
#X connect 13 0 9 0;
#X connect 13 1 10 0;
#X connect 13 2 15 0;
#X connect 13 3 16 0;
#X connect 20 0 70 1;
#X connect 20 0 73 0;
#X connect 20 0 101 0;
#X connect 22 0 19 0;
#X connect 22 1 20 0;
#X connect 22 2 24 0;
#X connect 22 3 25 0;
#X connect 24 0 102 0;
#X connect 25 0 103 0;
#X connect 28 0 22 0;
#X connect 33 0 34 0;
#X connect 34 0 29 0;
#X connect 34 1 30 0;
#X connect 35 0 38 0;
#X connect 37 0 90 0;
#X connect 38 0 52 0;
#X connect 39 0 51 0;
#X connect 40 0 39 0;
#X connect 41 0 40 0;
#X connect 46 0 45 0;
#X connect 47 0 48 0;
#X connect 48 0 72 1;
#X connect 48 0 46 1;
#X connect 49 0 68 0;
#X connect 51 0 42 0;
#X connect 52 0 70 0;
#X connect 52 0 71 0;
#X connect 52 0 46 0;
#X connect 52 0 72 0;
#X connect 54 0 60 0;
#X connect 55 0 54 0;
#X connect 56 0 55 0;
#X connect 60 0 57 0;
#X connect 62 0 70 0;
#X connect 62 0 71 0;
#X connect 62 0 46 0;
#X connect 62 0 72 0;
#X connect 63 0 62 0;
#X connect 64 0 62 0;
#X connect 65 0 63 0;
#X connect 66 0 64 0;
#X connect 67 0 65 0;
#X connect 67 1 66 0;
#X connect 68 0 67 0;
#X connect 72 0 45 1;
#X connect 73 0 71 1;
#X connect 74 0 80 0;
#X connect 77 0 75 0;
#X connect 78 0 76 0;
#X connect 79 0 77 0;
#X connect 79 1 78 0;
#X connect 80 0 79 0;
#X connect 83 0 86 0;
#X connect 85 0 83 0;
#X connect 87 0 85 0;
#X connect 88 0 7 0;
#X connect 88 0 50 0;
#X connect 88 1 49 0;
#X connect 88 2 74 0;
#X connect 90 0 35 0;
#X connect 90 1 91 0;
#X connect 94 0 100 0;
#X connect 96 0 97 0;
#X connect 97 0 93 0;
#X connect 97 1 94 0;
#X connect 98 0 99 0;
#X connect 100 0 98 0;
