#N canvas 215 38 1434 966 12;
#X obj 1093 25 import mrpeach;
#X obj 45 481 packOSC;
#X obj 27 571 udpsend;
#X msg 31 59 disconnect;
#X msg 69 238 send /sleeper/piezo_onset 1;
#X obj 26 610 tgl 15 0 empty empty empty 17 7 0 10 #fcfcfc #000000
#000000 1 1;
#X obj 67 158 bng 14 250 50 0 empty empty empty 17 7 0 10 #fcfcfc #000000
#000000;
#X msg 21 35 connect 127.0.0.1 8000;
#X msg 761 443 send /sleeper/angle 1 \$1 \$2 \$3;
#X msg 1077 441 send /sleeper/accel 1 \$1 \$2 \$3;
#X obj 762 283 hsl 128 15 0 1 0 0 empty empty empty -2 -8 0 10 #fcfcfc
#000000 #000000 0 1;
#X text 905 281 x;
#X obj 762 300 hsl 128 15 0 1 0 0 empty empty empty -2 -8 0 10 #fcfcfc
#000000 #000000 0 1;
#X obj 762 318 hsl 128 15 0 1 0 0 empty empty empty -2 -8 0 10 #fcfcfc
#000000 #000000 0 1;
#X text 904 297 y;
#X text 905 317 z;
#X obj 765 363 pack b f f f;
#X obj 666 98 metro 50;
#X obj 664 67 tgl 15 0 empty empty empty 17 7 0 10 #fcfcfc #000000
#000000 0 1;
#X obj 765 390 route;
#X obj 1075 282 hsl 128 15 0 1 0 0 empty empty empty -2 -8 0 10 #fcfcfc
#000000 #000000 0 1;
#X text 1217 276 x;
#X obj 1075 299 hsl 128 15 0 1 0 0 empty empty empty -2 -8 0 10 #fcfcfc
#000000 #000000 0 1;
#X obj 1075 317 hsl 128 15 0 1 0 0 empty empty empty -2 -8 0 10 #fcfcfc
#000000 #000000 0 1;
#X text 1216 292 y;
#X text 1217 312 z;
#X obj 1078 362 pack b f f f;
#X obj 969 99 metro 50;
#X obj 969 69 tgl 15 0 empty empty empty 17 7 0 10 #fcfcfc #000000
#000000 0 1;
#X obj 1078 389 route;
#X obj 761 174 snapshot~;
#X floatatom 762 248 5 0 0 0 - - -, f 5;
#X obj 761 197 + 1;
#X obj 761 223 / 2;
#X obj 761 147 osc~ 0.5;
#X obj 1075 163 snapshot~;
#X floatatom 1076 237 5 0 0 0 - - -, f 5;
#X obj 1075 186 + 1;
#X obj 1075 212 / 2;
#X obj 1075 136 osc~ 0.5;
#X obj 275 158 bng 14 250 50 0 empty empty empty 17 7 0 10 #fcfcfc
#000000 #000000;
#X msg 277 238 send /sleeper/piezo2_onset 1;
#X obj 327 306 tgl 15 0 empty empty empty 17 7 0 10 #fcfcfc #000000
#000000 0 1;
#X obj 359 307 tgl 15 0 empty empty empty 17 7 0 10 #fcfcfc #000000
#000000 0 1;
#X obj 299 367 print;
#X obj 298 340 pack i i i;
#X msg 251 422 send /sleeper/touch 1 \$2 \$3;
#X connect 1 0 2 0;
#X connect 2 0 5 0;
#X connect 3 0 2 0;
#X connect 4 0 1 0;
#X connect 6 0 4 0;
#X connect 7 0 2 0;
#X connect 8 0 1 0;
#X connect 9 0 1 0;
#X connect 10 0 16 1;
#X connect 12 0 16 2;
#X connect 13 0 16 3;
#X connect 16 0 19 0;
#X connect 17 0 16 0;
#X connect 17 0 30 0;
#X connect 18 0 17 0;
#X connect 19 0 8 0;
#X connect 20 0 26 1;
#X connect 22 0 26 2;
#X connect 23 0 26 3;
#X connect 26 0 29 0;
#X connect 27 0 26 0;
#X connect 27 0 35 0;
#X connect 28 0 27 0;
#X connect 29 0 9 0;
#X connect 30 0 32 0;
#X connect 31 0 10 0;
#X connect 32 0 33 0;
#X connect 33 0 31 0;
#X connect 34 0 30 0;
#X connect 35 0 37 0;
#X connect 36 0 20 0;
#X connect 37 0 38 0;
#X connect 38 0 36 0;
#X connect 39 0 35 0;
#X connect 40 0 41 0;
#X connect 41 0 1 0;
#X connect 42 0 45 1;
#X connect 42 0 45 0;
#X connect 43 0 45 2;
#X connect 43 0 45 0;
#X connect 45 0 44 0;
#X connect 45 0 46 0;
#X connect 46 0 1 0;
