#N canvas 361 385 1233 626 12;
#X obj 1093 25 import mrpeach;
#X obj 52 246 packOSC;
#X obj 34 336 udpsend;
#X msg 40 57 disconnect;
#X msg 112 195 send /sleeper/piezo_onset 1;
#X obj 33 375 tgl 15 0 empty empty empty 17 7 0 10 #fcfcfc #000000
#000000 1 1;
#X obj 110 115 bng 14 250 50 0 empty empty empty 17 7 0 10 #fcfcfc
#000000 #000000;
#X msg 347 195 send /sleeper/touch 1 \$1;
#X obj 351 112 tgl 15 0 empty empty empty 17 7 0 10 #fcfcfc #000000
#000000 0 1;
#X msg 30 33 connect 127.0.0.1 8000;
#X msg 556 194 send /sleeper/angle 1 \$1 \$2 \$3;
#X msg 799 192 send /sleeper/accel 1 \$1 \$2 \$3;
#X obj 557 34 hsl 128 15 0 1 0 0 empty empty empty -2 -8 0 10 #fcfcfc
#000000 #000000 2900 1;
#X text 700 32 x;
#X obj 557 51 hsl 128 15 0 1 0 0 empty empty empty -2 -8 0 10 #fcfcfc
#000000 #000000 2550 1;
#X obj 557 69 hsl 128 15 0 1 0 0 empty empty empty -2 -8 0 10 #fcfcfc
#000000 #000000 3700 1;
#X text 699 48 y;
#X text 700 68 z;
#X obj 560 114 pack b f f f;
#X obj 454 33 metro 50;
#X obj 450 3 tgl 15 0 empty empty empty 17 7 0 10 #fcfcfc #000000 #000000
1 1;
#X obj 560 141 route;
#X obj 870 33 hsl 128 15 0 1 0 0 empty empty empty -2 -8 0 10 #fcfcfc
#000000 #000000 2800 1;
#X text 1013 31 x;
#X obj 870 50 hsl 128 15 0 1 0 0 empty empty empty -2 -8 0 10 #fcfcfc
#000000 #000000 5700 1;
#X obj 870 68 hsl 128 15 0 1 0 0 empty empty empty -2 -8 0 10 #fcfcfc
#000000 #000000 4400 1;
#X text 1012 47 y;
#X text 1013 67 z;
#X obj 873 113 pack b f f f;
#X obj 767 32 metro 50;
#X obj 763 2 tgl 15 0 empty empty empty 17 7 0 10 #fcfcfc #000000 #000000
1 1;
#X obj 873 140 route;
#X connect 1 0 2 0;
#X connect 2 0 5 0;
#X connect 3 0 2 0;
#X connect 4 0 1 0;
#X connect 6 0 4 0;
#X connect 7 0 1 0;
#X connect 8 0 7 0;
#X connect 9 0 2 0;
#X connect 10 0 1 0;
#X connect 11 0 1 0;
#X connect 12 0 18 1;
#X connect 14 0 18 2;
#X connect 15 0 18 3;
#X connect 18 0 21 0;
#X connect 19 0 18 0;
#X connect 20 0 19 0;
#X connect 21 0 10 0;
#X connect 22 0 28 1;
#X connect 24 0 28 2;
#X connect 25 0 28 3;
#X connect 28 0 31 0;
#X connect 29 0 28 0;
#X connect 30 0 29 0;
#X connect 31 0 11 0;
